<svg width="40" height="40" viewBox="0 0 40 40" fill="none" xmlns="http://www.w3.org/2000/svg">
<rect x="7.59277" width="33.2851" height="33.2851" rx="4.99276" transform="rotate(13.1855 7.59277 0)" fill="url(#paint0_linear_1_2097)" fill-opacity="0.7"/>
<path d="M21.5622 19.0923L25.3986 19.9911L16.7417 28.1517L18.4388 20.9077L14.6024 20.0089L23.2593 11.8483L21.5622 19.0923Z" fill="#F3F3F3"/>
<rect x="0.21875" y="7.32092" width="33.2851" height="33.2851" rx="4.99276" transform="rotate(-12.3207 0.21875 7.32092)" fill="url(#paint1_linear_1_2097)" fill-opacity="0.5"/>
<path d="M21.0475 18.5372L24.897 17.6964L20.5979 28.7894L19.0103 21.5206L15.1607 22.3614L19.4599 11.2685L21.0475 18.5372Z" fill="#F3F3F3"/>
<rect x="3.33008" y="3.32849" width="33.2851" height="33.2851" rx="4.99276" fill="url(#paint2_linear_1_2097)"/>
<path d="M25.0117 13.6508L13.2529 25.4095V27.9711H14.9326V26.2494L26.6914 14.4906V11.9711H25.0117V13.6508ZM26.7754 17.0101C26.7291 17.0101 26.6916 17.0479 26.6914 17.0941V25.3744C26.6914 25.3966 26.6827 25.4182 26.667 25.434L25.876 26.225C25.8602 26.2406 25.8386 26.2494 25.8164 26.2494H17.5361C17.4899 26.2496 17.4521 26.2871 17.4521 26.3334V27.8451C17.4522 27.8913 17.4899 27.9289 17.5361 27.9291H26.6562C26.6784 27.9291 26.7001 27.9203 26.7158 27.9047L28.3467 26.2738C28.3624 26.2581 28.3711 26.2365 28.3711 26.2142V17.0941C28.3709 17.0479 28.3334 17.0101 28.2871 17.0101H26.7754ZM13.2881 11.9711C13.2659 11.9711 13.2442 11.9799 13.2285 11.9955L11.5977 13.6263C11.582 13.6421 11.5732 13.6637 11.5732 13.6859V22.806C11.5734 22.8523 11.611 22.89 11.6572 22.89H13.1689C13.2152 22.89 13.2527 22.8523 13.2529 22.806V14.5258C13.2529 14.5035 13.2617 14.4819 13.2773 14.4662L14.0684 13.6752C14.0841 13.6596 14.1058 13.6508 14.1279 13.6508H22.4082C22.4544 13.6505 22.4922 13.613 22.4922 13.5668V12.0551C22.4922 12.0088 22.4544 11.9713 22.4082 11.9711H13.2881Z" fill="#FAF4F4"/>
<defs>
<linearGradient id="paint0_linear_1_2097" x1="7.59277" y1="0" x2="41.4353" y2="0.576838" gradientUnits="userSpaceOnUse">
<stop stop-color="#9E6EE5"/>
<stop offset="1" stop-color="#FA75F8"/>
</linearGradient>
<linearGradient id="paint1_linear_1_2097" x1="0.21875" y1="7.32092" x2="34.0613" y2="7.89776" gradientUnits="userSpaceOnUse">
<stop stop-color="#9E6EE5"/>
<stop offset="1" stop-color="#FA75F8"/>
</linearGradient>
<linearGradient id="paint2_linear_1_2097" x1="3.33008" y1="3.32849" x2="37.1726" y2="3.90533" gradientUnits="userSpaceOnUse">
<stop stop-color="#9E6EE5"/>
<stop offset="1" stop-color="#FA75F8"/>
</linearGradient>
</defs>
</svg>
