<svg width="40" height="40" viewBox="0 0 40 40" fill="none" xmlns="http://www.w3.org/2000/svg">
<path d="M26.5361 6.02637C26.3171 6.57038 26.091 7.05834 25.8154 7.60938C23.3625 12.7968 21.1488 18.0693 19.4873 23.6172C18.4339 27.1368 17.5509 30.6358 17.4375 34.3252C17.4304 34.728 17.4301 35.1873 17.4795 35.583C17.5501 36.1483 17.6702 36.6501 17.9033 37.1377C18.4403 38.219 19.3165 38.7991 20.3906 38.665C20.7299 38.6227 21.0558 38.4672 21.4375 38.3047C21.925 38.0715 22.2855 37.7394 22.6953 37.3438C23.1972 36.7642 23.642 36.1914 24.0732 35.5059C24.7307 34.3327 25.3953 33.2161 26.0527 32.043C27.9896 28.2408 29.9341 24.4953 31.8145 20.7002C33.8705 16.6242 36.4977 13.0429 40 10.1426V32.002C39.9999 36.4191 36.4191 39.9999 32.002 40H7.99805C3.5809 39.9999 0.000128849 36.4191 0 32.002V24.2383C0.0884493 24.2996 0.185264 24.3567 0.291992 24.4072C0.595795 24.5415 0.948958 24.6126 1.28809 24.5703C1.62734 24.5279 1.95276 24.3723 2.32031 24.0967C2.79381 23.7504 3.07654 23.2557 3.42285 22.8105C5.05571 20.7116 6.44823 18.5271 7.96094 16.3857C9.08479 14.8098 10.2019 13.1775 11.5166 11.75C11.4883 11.9832 11.4598 12.2167 11.375 12.457C11.0286 13.821 10.6259 15.1921 10.3926 16.542C10.3007 17.185 10.1453 17.7784 10.2158 18.3438L10.2432 18.5703C10.4692 19.9203 11.4237 20.6625 12.498 20.5283C12.8373 20.4859 13.1625 20.3304 13.5371 20.1113C13.9116 19.8923 14.1658 19.6307 14.4697 19.3057C15.12 18.5353 15.8276 17.7578 16.5273 16.9238C18.563 14.3727 20.6555 11.8141 22.9385 9.4043C24.0481 8.1748 25.1575 6.94512 26.4014 5.87109L26.5361 6.02637ZM32.002 0C36.1143 0.000118756 39.5002 3.10395 39.9482 7.09668C39.6621 6.95748 39.3517 6.89527 39.0527 6.93262C38.8267 6.96088 38.6641 7.03844 38.4521 7.17969C38.1271 7.3351 37.8091 7.54723 37.5547 7.80859C35.2221 9.82267 33.1504 12.0918 31.4609 14.6572C29.8141 17.1024 28.5275 19.6748 27.248 22.3037C25.3535 25.9858 23.5795 29.7105 21.4941 33.2441C21.3457 33.435 21.2748 33.7887 20.9355 33.8311C20.8649 33.725 20.8579 33.6678 20.8438 33.5547C20.8298 33.4418 20.8724 33.3219 20.8584 33.209C21.0423 31.4633 21.3531 29.8162 21.7773 28.1553C23.3824 21.6956 25.8283 15.5326 28.6348 9.49707C29.5113 7.77972 30.3245 6.01247 31.0244 4.25977C31.2223 3.54618 31.4267 2.88912 31.335 2.1543L31.3779 2.03418C31.2155 0.733757 30.1979 -0.0578447 28.8975 0.104492L28.7842 0.118164C28.339 0.231189 27.9576 0.394265 27.583 0.613281C26.834 1.0513 26.1551 1.59488 25.5332 2.13184C22.8331 4.42152 20.4014 7.02313 18.1465 9.65918C16.9874 10.9523 15.8917 12.2948 14.6973 13.7646C14.6761 13.1358 14.8027 12.7753 14.9229 12.3584C15.4672 10.7401 16.1248 9.10749 16.6621 7.43262C16.8883 6.94506 16.9945 6.41473 17.1006 5.88477C17.1289 5.6517 17.1502 5.36184 17.1221 5.13574C17.0585 4.62686 16.8317 4.19509 16.3936 3.90527C15.9556 3.61571 15.4824 3.50221 15.0303 3.55859C14.8042 3.58683 14.5283 3.67884 14.2598 3.82715C13.6661 4.13095 13.1498 4.59736 12.6904 5.05664C9.99734 7.86227 7.69294 11.0219 5.45215 14.2305C5.05632 14.7393 4.61066 15.3115 4.21484 15.8203C4.58963 13.7637 5.26163 11.7849 6.00391 9.91211C6.13116 9.55167 6.39287 9.34677 6.71094 9.13477C7.3965 8.64717 7.6646 8.03894 7.58691 7.41699C7.53744 7.02126 7.36821 6.58306 7.03613 6.22266C6.63332 5.75616 6.03222 5.54364 5.4668 5.61426C5.01461 5.6708 4.58367 5.89739 4.17383 6.29297C3.67208 6.87233 3.35395 7.54374 3.04297 8.27148C1.6651 11.4803 0.727095 14.7987 0 18.1797V7.99805C0.000127561 3.5809 3.5809 0.000128846 7.99805 0H32.002Z" fill="#0E6AC7"/>
</svg>
