<svg width="20" height="20" viewBox="0 0 20 20" fill="none" xmlns="http://www.w3.org/2000/svg">
<path d="M10 0C4.48597 0 0 4.48597 0 10C0 15.5139 4.48597 20 10 20C15.5139 20 20 15.5139 20 10C20 4.48597 15.5139 0 10 0ZM18.1681 13.678C18.1073 13.685 18.0464 13.7021 17.9891 13.7322C17.966 13.7444 17.2541 14.1077 16.0548 14.5031C16.3827 13.1128 16.5262 11.7755 16.5491 10.5195H18.9449C18.8804 11.6396 18.6085 12.7044 18.1681 13.678ZM13.6478 18.1818C12.6836 18.6134 11.6305 18.8803 10.5235 18.9448V16.5731C12.0165 16.522 13.3677 16.3078 14.5161 16.0382C14.2893 16.6919 14.0209 17.3519 13.6952 18.015C13.6688 18.0692 13.6547 18.1256 13.6478 18.1818ZM6.27174 18.0027C6.25983 17.9794 5.89923 17.273 5.50545 16.082C6.89326 16.4103 8.23018 16.5577 9.48449 16.5813V18.9453C8.36345 18.8814 7.29799 18.6095 6.32366 18.1691C6.31536 18.1123 6.29978 18.0561 6.27174 18.0027ZM1.83198 13.6785C1.39166 12.7049 1.11947 11.6396 1.05531 10.5195H3.43089C3.481 12.0273 3.69813 13.3885 3.97069 14.5447C3.31867 14.3182 2.6608 14.0506 1.99895 13.7259C1.94467 13.6992 1.88858 13.6851 1.83198 13.6785ZM1.81479 6.35944C1.88168 6.35402 1.94833 6.33511 2.01151 6.3021C2.03437 6.28977 2.73432 5.93293 3.91474 5.54128C3.59198 6.91505 3.44911 8.23736 3.42473 9.48027H1.05508C1.11872 8.37481 1.38471 7.32283 1.81479 6.35944ZM6.32802 1.82906C7.301 1.39013 8.36521 1.11872 9.48449 1.05503V3.46158C7.97314 3.51266 6.60906 3.73146 5.452 4.00518C5.68007 3.3462 5.94995 2.68111 6.27814 2.01249C6.30734 1.95325 6.32259 1.89095 6.32802 1.82906ZM13.7019 2.02491C13.7138 2.048 14.0742 2.7543 14.4678 3.94469C13.0919 3.62178 11.768 3.47924 10.5235 3.45523V1.05554C11.6289 1.1197 12.6806 1.38591 13.6439 1.81664C13.6486 1.88728 13.6668 1.95821 13.7019 2.02491ZM10.5235 4.51944C11.8726 4.5429 13.3188 4.71529 14.8148 5.11477C15.1322 6.31429 15.4091 7.80362 15.4738 9.4805H10.5235V4.51944ZM9.48449 4.52936V9.4805H4.4894C4.51351 8.13246 4.68646 6.68754 5.08622 5.19274C6.29255 4.87266 7.79352 4.59324 9.48449 4.52936ZM4.49891 10.5195H9.48449V15.5144C8.12486 15.4915 6.66705 15.318 5.15839 14.9124C4.83947 13.7064 4.56158 12.2075 4.49891 10.5195ZM10.5235 15.5043V10.5195H15.4845C15.4622 11.8801 15.2886 13.3391 14.8836 14.8493C13.6842 15.1659 12.1972 15.4409 10.5235 15.5043ZM16.5422 9.4805C16.4905 7.98232 16.2734 6.6296 16.0024 5.48C16.6634 5.70853 17.3311 5.9792 18.0023 6.30859C18.0611 6.33738 18.1225 6.35096 18.1841 6.35666C18.6151 7.32107 18.8814 8.37383 18.9453 9.4805H16.5422ZM17.3463 4.87762C16.7868 4.64567 16.2319 4.44704 15.6829 4.27789C15.4886 3.62966 15.2906 3.08342 15.1175 2.64996C15.9849 3.25586 16.74 4.01061 17.3463 4.87762ZM4.84263 2.6787C4.61363 3.23268 4.41663 3.78208 4.24905 4.32568C3.61534 4.51615 3.0792 4.71005 2.65177 4.88054C3.24877 4.02595 3.991 3.28024 4.84263 2.6787ZM2.69251 15.177C3.23013 15.3985 3.76367 15.5894 4.29147 15.7528C4.47531 16.3673 4.66342 16.8908 4.82993 17.3123C4.00296 16.7258 3.27973 16.0034 2.69251 15.177ZM15.1355 17.3366C15.3602 16.7923 15.5539 16.2525 15.7194 15.7184C16.3479 15.5303 16.885 15.3379 17.3136 15.1685C16.7173 16.0101 15.9801 16.7441 15.1355 17.3366Z" fill="#007AFF"/>
</svg>
