<svg width="25" height="26" viewBox="0 0 25 26" fill="none" xmlns="http://www.w3.org/2000/svg">
<path d="M6.52503 0.428364C7.50031 0.758745 8.42813 1.21545 9.28479 1.78682C10.4946 1.4776 11.7387 1.32226 12.9874 1.32447C14.277 1.32447 15.5212 1.48552 16.6874 1.78552C17.5438 1.2147 18.4711 0.758442 19.4459 0.428364C20.3511 0.120569 21.6407 -0.378136 22.407 0.469922C22.9265 1.04655 23.0563 2.01279 23.1485 2.75046C23.2524 3.57384 23.2771 4.64658 23.0044 5.71152C24.0472 7.05829 24.6758 8.66479 24.6758 10.4155C24.6758 13.0674 23.2395 15.37 21.1135 16.9649C20.0903 17.7227 18.9555 18.3168 17.7498 18.7259C18.0277 19.3623 18.1823 20.0662 18.1823 20.8052V24.7013C18.1823 25.0457 18.0454 25.3761 17.8019 25.6196C17.5583 25.8632 17.228 26 16.8836 26H9.09128C8.74684 26 8.41651 25.8632 8.17295 25.6196C7.9294 25.3761 7.79257 25.0457 7.79257 24.7013V23.4143C6.5523 23.5662 5.51203 23.4311 4.62761 23.0558C3.70293 22.6636 3.05876 22.0558 2.57435 21.474C2.1146 20.9233 1.6133 19.6818 0.888617 19.4402C0.726765 19.3863 0.577114 19.3011 0.448207 19.1893C0.3193 19.0776 0.213662 18.9416 0.137325 18.789C-0.0168459 18.4809 -0.0423108 18.1242 0.0665322 17.7973C0.175375 17.4705 0.40961 17.2002 0.717708 17.046C1.02581 16.8919 1.38253 16.8664 1.7094 16.9753C2.57434 17.2636 3.13799 17.8869 3.5237 18.3883C4.14709 19.1935 4.65358 20.2454 5.6406 20.6649C6.0471 20.8376 6.64321 20.9506 7.57569 20.8233L7.79257 20.7792C7.79505 20.0724 7.94223 19.3736 8.22504 18.7259C7.0193 18.3168 5.88452 17.7227 4.86138 16.9649C2.73539 15.37 1.29901 13.0687 1.29901 10.4155C1.29901 8.66739 1.92629 7.06218 2.96656 5.71672C2.69383 4.65177 2.7172 3.57644 2.8211 2.75176L2.82759 2.70241C2.9224 1.94656 3.03279 1.05694 3.56266 0.469922C4.32891 -0.378136 5.61982 0.121868 6.52373 0.429662L6.52503 0.428364Z" fill="#F0EDE6"/>
</svg>
