<svg width="160" height="32" viewBox="0 0 160 32" fill="none" xmlns="http://www.w3.org/2000/svg">
<path d="M16 0C7.17756 0 0 7.17756 0 16C0 24.8222 7.17756 32 16 32C24.8222 32 32 24.8223 32 16C32 7.17756 24.8222 0 16 0ZM29.069 21.8847C28.9717 21.896 28.8742 21.9233 28.7825 21.9715C28.7455 21.9911 27.6065 22.5723 25.6876 23.2049C26.2123 20.9804 26.442 18.8408 26.4786 16.8311H30.3118C30.2086 18.6234 29.7736 20.3271 29.069 21.8847ZM21.8365 29.0909C20.2938 29.7815 18.6088 30.2085 16.8376 30.3116V26.5169C19.2264 26.4351 21.3883 26.0924 23.2258 25.6611C22.8629 26.707 22.4334 27.763 21.9123 28.8239C21.8701 28.9107 21.8476 29.001 21.8365 29.0909ZM10.0348 28.8043C10.0157 28.7671 9.43877 27.6368 8.80872 25.7312C11.0292 26.2565 13.1683 26.4922 15.1752 26.53V30.3125C13.3815 30.2102 11.6768 29.7753 10.1179 29.0706C10.1046 28.9797 10.0797 28.8898 10.0348 28.8043ZM2.93117 21.8856C2.22666 20.3279 1.79114 18.6234 1.6885 16.8311H5.48943C5.56961 19.2436 5.91701 21.4216 6.35311 23.2715C5.30987 22.9091 4.25729 22.4809 3.19832 21.9614C3.11147 21.9188 3.02173 21.8961 2.93117 21.8856ZM2.90366 10.1751C3.01068 10.1664 3.11733 10.1362 3.21842 10.0834C3.25499 10.0636 4.37492 9.49269 6.26359 8.86605C5.74716 11.0641 5.51858 13.1798 5.47957 15.1684H1.68813C1.78996 13.3997 2.21553 11.7165 2.90366 10.1751ZM10.1248 2.9265C11.6816 2.22421 13.3843 1.78996 15.1752 1.68805V5.53853C12.757 5.62026 10.5745 5.97033 8.72321 6.40829C9.08811 5.35393 9.51991 4.28977 10.045 3.21998C10.0917 3.12519 10.1161 3.02551 10.1248 2.9265ZM21.923 3.23986C21.9421 3.27679 22.5187 4.40688 23.1485 6.3115C20.9471 5.79485 18.8287 5.56679 16.8376 5.52837V1.68887C18.6062 1.79152 20.2889 2.21746 21.8302 2.90662C21.8378 3.01965 21.8669 3.13313 21.923 3.23986ZM16.8376 7.23111C18.9961 7.26863 21.3101 7.54446 23.7037 8.18364C24.2114 10.1029 24.6546 12.4858 24.7581 15.1688H16.8376V7.23111ZM15.1752 7.24698V15.1688H7.18304C7.22161 13.0119 7.49833 10.7001 8.13795 8.30839C10.0681 7.79626 12.4696 7.34918 15.1752 7.24698ZM7.19825 16.8311H15.1752V24.8231C12.9998 24.7865 10.6673 24.5089 8.25343 23.8599C7.74316 21.9302 7.29852 19.5321 7.19825 16.8311ZM16.8376 24.8069V16.8311H24.7751C24.7394 19.0082 24.4618 21.3426 23.8137 23.759C21.8947 24.2654 19.5155 24.7054 16.8376 24.8069ZM26.4676 15.1688C26.3848 12.7717 26.0374 10.6074 25.6039 8.768C26.6615 9.13365 27.7297 9.56671 28.8036 10.0937C28.8978 10.1398 28.9959 10.1615 29.0946 10.1707C29.7841 11.7137 30.2103 13.3981 30.3125 15.1688H26.4676ZM27.7541 7.8042C26.8589 7.43306 25.971 7.11526 25.0927 6.84462C24.7817 5.80746 24.4649 4.93347 24.1879 4.23993C25.5758 5.20937 26.784 6.41697 27.7541 7.8042ZM7.7482 4.28592C7.38181 5.17229 7.0666 6.05132 6.79849 6.92109C5.78454 7.22584 4.92672 7.53608 4.24282 7.80887C5.19803 6.44152 6.3856 5.24839 7.7482 4.28592ZM4.30802 24.2832C5.16821 24.6375 6.02188 24.943 6.86635 25.2045C7.1605 26.1876 7.46147 27.0253 7.72788 27.6996C6.40473 26.7613 5.24757 25.6055 4.30802 24.2832ZM24.2169 27.7386C24.5764 26.8677 24.8863 26.004 25.151 25.1494C26.1567 24.8485 27.016 24.5406 27.7018 24.2695C26.7477 25.6162 25.5682 26.7906 24.2169 27.7386Z" fill="#007AFF"/>
<path d="M53.6352 24.2496C52.6506 24.2496 51.7562 24.0624 50.952 23.688C50.1477 23.3136 49.4682 22.8144 48.9136 22.1904C48.3589 21.5525 47.9637 20.8523 47.728 20.0896L49.2256 19.528C49.5861 20.5819 50.1477 21.3861 50.9104 21.9408C51.673 22.4816 52.5813 22.752 53.6352 22.752C54.3008 22.752 54.8832 22.648 55.3824 22.44C55.8954 22.2181 56.2906 21.9131 56.568 21.5248C56.8453 21.1365 56.984 20.6859 56.984 20.1728C56.984 19.4101 56.776 18.8208 56.36 18.4048C55.944 17.9888 55.3477 17.6699 54.5712 17.448L51.784 16.616C50.6885 16.2971 49.8426 15.7632 49.2464 15.0144C48.664 14.2656 48.3728 13.4128 48.3728 12.456C48.3728 11.6379 48.5738 10.9168 48.976 10.2928C49.3781 9.65493 49.9258 9.15573 50.6192 8.7952C51.3264 8.43467 52.1237 8.2544 53.0112 8.2544C53.9402 8.2544 54.7722 8.42773 55.5072 8.7744C56.256 9.1072 56.8869 9.55093 57.4 10.1056C57.913 10.6603 58.2805 11.2773 58.5024 11.9568L57.0464 12.5392C56.7136 11.624 56.1936 10.9307 55.4864 10.4592C54.793 9.98773 53.9749 9.752 53.032 9.752C52.4357 9.752 51.9088 9.856 51.4512 10.064C51.0074 10.272 50.6608 10.5701 50.4112 10.9584C50.1616 11.3467 50.0368 11.8043 50.0368 12.3312C50.0368 12.9691 50.2378 13.5445 50.64 14.0576C51.0421 14.5568 51.6592 14.9312 52.4912 15.1808L54.9456 15.9088C56.1658 16.2693 57.088 16.7893 57.712 17.4688C58.336 18.1483 58.648 19.0011 58.648 20.0272C58.648 20.8592 58.433 21.5941 58.0032 22.232C57.5872 22.856 56.9978 23.3483 56.2352 23.7088C55.4864 24.0693 54.6197 24.2496 53.6352 24.2496ZM60.2597 24L65.9173 8.504H67.7061L73.3637 24H71.6165L70.2853 20.2144H63.3589L62.0069 24H60.2597ZM63.8997 18.6544H69.7029L66.5621 9.752H67.0613L63.8997 18.6544ZM75.43 24V8.504H77.094V22.44H83.958V24H75.43ZM86.48 24V8.504H96.464V10.064H88.144V15.4512H96.048V17.0112H88.144V22.44H96.464V24H86.48ZM104.437 24.2496C103.452 24.2496 102.558 24.0624 101.754 23.688C100.949 23.3136 100.27 22.8144 99.7151 22.1904C99.1605 21.5525 98.7653 20.8523 98.5295 20.0896L100.027 19.528C100.388 20.5819 100.949 21.3861 101.712 21.9408C102.475 22.4816 103.383 22.752 104.437 22.752C105.102 22.752 105.685 22.648 106.184 22.44C106.697 22.2181 107.092 21.9131 107.37 21.5248C107.647 21.1365 107.786 20.6859 107.786 20.1728C107.786 19.4101 107.578 18.8208 107.162 18.4048C106.746 17.9888 106.149 17.6699 105.373 17.448L102.586 16.616C101.49 16.2971 100.644 15.7632 100.048 15.0144C99.4655 14.2656 99.1743 13.4128 99.1743 12.456C99.1743 11.6379 99.3754 10.9168 99.7775 10.2928C100.18 9.65493 100.727 9.15573 101.421 8.7952C102.128 8.43467 102.925 8.2544 103.813 8.2544C104.742 8.2544 105.574 8.42773 106.309 8.7744C107.058 9.1072 107.688 9.55093 108.202 10.1056C108.715 10.6603 109.082 11.2773 109.304 11.9568L107.848 12.5392C107.515 11.624 106.995 10.9307 106.288 10.4592C105.595 9.98773 104.776 9.752 103.834 9.752C103.237 9.752 102.71 9.856 102.253 10.064C101.809 10.272 101.462 10.5701 101.213 10.9584C100.963 11.3467 100.838 11.8043 100.838 12.3312C100.838 12.9691 101.039 13.5445 101.442 14.0576C101.844 14.5568 102.461 14.9312 103.293 15.1808L105.747 15.9088C106.967 16.2693 107.89 16.7893 108.514 17.4688C109.138 18.1483 109.45 19.0011 109.45 20.0272C109.45 20.8592 109.235 21.5941 108.805 22.232C108.389 22.856 107.799 23.3483 107.037 23.7088C106.288 24.0693 105.421 24.2496 104.437 24.2496ZM112.975 24V21.712H114.639V24H112.975ZM118.157 24V8.504H123.211C124.889 8.504 126.345 8.8368 127.579 9.5024C128.813 10.168 129.77 11.0832 130.45 12.248C131.129 13.4128 131.469 14.744 131.469 16.2416C131.469 17.7392 131.129 19.0773 130.45 20.256C129.77 21.4208 128.813 22.336 127.579 23.0016C126.345 23.6672 124.889 24 123.211 24H118.157ZM121.381 21.192H123.294C124.307 21.192 125.18 20.9909 125.915 20.5888C126.65 20.1728 127.219 19.5973 127.621 18.8624C128.037 18.1136 128.245 17.24 128.245 16.2416C128.245 15.2293 128.037 14.3557 127.621 13.6208C127.219 12.8859 126.65 12.3173 125.915 11.9152C125.18 11.5131 124.307 11.312 123.294 11.312H121.381V21.192ZM133.533 24V8.504H143.954V11.312H136.757V14.8272H143.538V17.6352H136.757V21.192H143.954V24H133.533ZM149.942 24L144.638 8.504H148.174L152.167 20.9424H151.46L155.454 8.504H158.99L153.686 24H149.942Z" fill="#F0EDE6"/>
</svg>
