<svg width="32" height="32" viewBox="0 0 32 32" fill="none" xmlns="http://www.w3.org/2000/svg">
<path d="M16 0C7.17756 0 0 7.17756 0 16C0 24.8222 7.17756 32 16 32C24.8222 32 32 24.8223 32 16C32 7.17756 24.8222 0 16 0ZM29.069 21.8847C28.9717 21.896 28.8742 21.9233 28.7825 21.9715C28.7455 21.9911 27.6065 22.5723 25.6876 23.2049C26.2123 20.9804 26.442 18.8408 26.4786 16.8311H30.3118C30.2086 18.6234 29.7736 20.3271 29.069 21.8847ZM21.8365 29.0909C20.2938 29.7815 18.6088 30.2085 16.8376 30.3116V26.5169C19.2264 26.4351 21.3883 26.0924 23.2258 25.6611C22.8629 26.707 22.4334 27.763 21.9123 28.8239C21.8701 28.9107 21.8476 29.001 21.8365 29.0909ZM10.0348 28.8043C10.0157 28.7671 9.43877 27.6368 8.80872 25.7312C11.0292 26.2565 13.1683 26.4922 15.1752 26.53V30.3125C13.3815 30.2102 11.6768 29.7753 10.1179 29.0706C10.1046 28.9797 10.0797 28.8898 10.0348 28.8043ZM2.93117 21.8856C2.22666 20.3279 1.79114 18.6234 1.6885 16.8311H5.48943C5.56961 19.2436 5.91701 21.4216 6.35311 23.2715C5.30987 22.9091 4.25729 22.4809 3.19832 21.9614C3.11147 21.9188 3.02173 21.8961 2.93117 21.8856ZM2.90366 10.1751C3.01068 10.1664 3.11733 10.1362 3.21842 10.0834C3.25499 10.0636 4.37492 9.49269 6.26359 8.86605C5.74716 11.0641 5.51858 13.1798 5.47957 15.1684H1.68813C1.78996 13.3997 2.21553 11.7165 2.90366 10.1751ZM10.1248 2.9265C11.6816 2.22421 13.3843 1.78996 15.1752 1.68805V5.53853C12.757 5.62026 10.5745 5.97033 8.72321 6.40829C9.08811 5.35393 9.51991 4.28977 10.045 3.21998C10.0917 3.12519 10.1161 3.02551 10.1248 2.9265ZM21.923 3.23986C21.9421 3.27679 22.5187 4.40688 23.1485 6.3115C20.9471 5.79485 18.8287 5.56679 16.8376 5.52837V1.68887C18.6062 1.79152 20.2889 2.21746 21.8302 2.90662C21.8378 3.01965 21.8669 3.13313 21.923 3.23986ZM16.8376 7.23111C18.9961 7.26863 21.3101 7.54446 23.7037 8.18364C24.2114 10.1029 24.6546 12.4858 24.7581 15.1688H16.8376V7.23111ZM15.1752 7.24698V15.1688H7.18304C7.22161 13.0119 7.49833 10.7001 8.13795 8.30839C10.0681 7.79626 12.4696 7.34918 15.1752 7.24698ZM7.19825 16.8311H15.1752V24.8231C12.9998 24.7865 10.6673 24.5089 8.25343 23.8599C7.74316 21.9302 7.29852 19.5321 7.19825 16.8311ZM16.8376 24.8069V16.8311H24.7751C24.7394 19.0082 24.4618 21.3426 23.8137 23.759C21.8947 24.2654 19.5155 24.7054 16.8376 24.8069ZM26.4676 15.1688C26.3848 12.7717 26.0374 10.6074 25.6039 8.768C26.6615 9.13365 27.7297 9.56671 28.8036 10.0937C28.8978 10.1398 28.9959 10.1615 29.0946 10.1707C29.7841 11.7137 30.2103 13.3981 30.3125 15.1688H26.4676ZM27.7541 7.8042C26.8589 7.43306 25.971 7.11526 25.0927 6.84462C24.7817 5.80746 24.4649 4.93347 24.1879 4.23993C25.5758 5.20937 26.784 6.41697 27.7541 7.8042ZM7.7482 4.28592C7.38181 5.17229 7.0666 6.05132 6.79849 6.92109C5.78454 7.22584 4.92672 7.53608 4.24282 7.80887C5.19803 6.44152 6.3856 5.24839 7.7482 4.28592ZM4.30802 24.2832C5.16821 24.6375 6.02188 24.943 6.86635 25.2045C7.1605 26.1876 7.46147 27.0253 7.72788 27.6996C6.40473 26.7613 5.24757 25.6055 4.30802 24.2832ZM24.2169 27.7386C24.5764 26.8677 24.8863 26.004 25.151 25.1494C26.1567 24.8485 27.016 24.5406 27.7018 24.2695C26.7477 25.6162 25.5682 26.7906 24.2169 27.7386Z" fill="#007AFF"/>
</svg>
