<svg width="27" height="26" viewBox="0 0 27 26" fill="none" xmlns="http://www.w3.org/2000/svg">
<path d="M23.7953 26H2.64393C1.94271 26 1.27022 25.7214 0.774388 25.2256C0.278556 24.7298 0 24.0573 0 23.3561V8.87926C0.0219757 8.44227 0.150412 8.01728 0.374131 7.64127C0.597849 7.26526 0.910072 6.94961 1.28363 6.72181L11.8593 0.376389C12.2701 0.130095 12.74 0 13.219 0C13.6979 0 14.1679 0.130095 14.5786 0.376389L25.1543 6.72181C25.9488 7.20168 26.4366 8.06096 26.4393 8.98898V23.3561C26.4393 24.0573 26.1607 24.7298 25.6649 25.2256C25.169 25.7214 24.4965 26 23.7953 26ZM2.64393 9.96194V23.3561H23.7953V9.96194L13.2196 17.012L2.64393 9.96194ZM13.2196 2.64356L4.38363 7.94463L13.2196 13.8353L22.0543 7.94463L13.2196 2.64356Z" fill="#F0EDE6"/>
</svg>
