<svg width="28" height="26" viewBox="0 0 28 26" fill="none" xmlns="http://www.w3.org/2000/svg">
<path d="M5.77746 2.89017C5.77708 3.65631 5.47236 4.39092 4.93035 4.93239C4.38834 5.47386 3.65342 5.77784 2.88729 5.77746C2.12115 5.77707 1.38654 5.47236 0.845068 4.93035C0.303597 4.38833 -0.000382708 3.65342 3.61613e-07 2.88728C0.000383431 2.12115 0.305098 1.38654 0.847111 0.845068C1.38912 0.303597 2.12404 -0.000382708 2.89017 3.61613e-07C3.65631 0.000383431 4.39092 0.305098 4.93239 0.847111C5.47386 1.38912 5.77784 2.12403 5.77746 2.89017ZM5.86412 10.8053C5.86412 9.20989 4.57079 7.91656 2.97539 7.91656C1.37999 7.91656 0.0866622 9.20989 0.0866622 10.8053V23.1113C0.0866622 24.7067 1.37999 26 2.97539 26C4.57079 26 5.86412 24.7067 5.86412 23.1113V10.8053ZM14.981 8.40062C14.9873 8.13516 14.7738 7.91656 14.5083 7.91656H12.084C10.5155 7.91656 9.24393 9.1881 9.24393 10.7566V23.1546C9.24393 24.7261 10.5179 26 12.0893 26C13.6608 26 14.9347 24.7261 14.9347 23.1546V16.5105C14.9347 11.2242 21.8244 10.7331 21.8244 16.5105V23.1474C21.8244 24.7228 23.1015 26 24.677 26C26.2524 26 27.5296 24.7228 27.5296 23.1474V14.5462C27.5296 6.76934 19.7642 6.03197 16.193 8.87863C15.8056 9.18742 14.9692 8.89588 14.981 8.40062Z" fill="#F0EDE6"/>
</svg>
