<svg width="26" height="26" viewBox="0 0 26 26" fill="none" xmlns="http://www.w3.org/2000/svg">
<path d="M1.55408 21.7701C1.19933 22.125 1 22.6063 1 23.108C1 23.6098 1.19928 24.091 1.55403 24.4459C1.90888 24.8006 2.39021 25 2.89196 25C3.39372 25 3.87494 24.8007 4.22979 24.446L13.0087 15.6671L21.7874 24.4459L21.7931 24.4515C22.1501 24.7962 22.628 24.987 23.1242 24.9826C23.6203 24.9783 24.0949 24.7794 24.4458 24.4285C24.7966 24.0776 24.9956 23.6031 24.9999 23.1069C25.0042 22.6108 24.8135 22.1328 24.4688 21.7759L24.4632 21.7701L15.6844 12.9913L24.4632 4.21256L24.4688 4.20685C24.8135 3.84996 25.0042 3.37197 24.9999 2.87582C24.9956 2.37967 24.7966 1.90508 24.4458 1.55423C24.0949 1.20339 23.6203 1.00439 23.1242 1.00007C22.628 0.995764 22.1501 1.18649 21.7931 1.53118L21.7874 1.5368L13.0087 10.3156L4.22984 1.5368L4.22412 1.53118C3.86724 1.18649 3.38924 0.995764 2.8931 1.00007C2.39695 1.00439 1.92235 1.20339 1.57151 1.55423C1.22067 1.90507 1.02166 2.37967 1.01735 2.87582C1.01304 3.37197 1.20376 3.84996 1.54846 4.20685L1.55408 4.21256L10.3329 12.9913L1.55408 21.7701Z" fill="#050506" stroke="#050506" stroke-width="0.923077"/>
</svg>
