<svg width="34" height="24" viewBox="0 0 34 24" fill="none" xmlns="http://www.w3.org/2000/svg">
<path d="M2.6002 0H14.6002C15.2367 0 15.8472 0.252856 16.2973 0.702944C16.7473 1.15303 17.0002 1.76348 17.0002 2.4C17.0002 3.03652 16.7473 3.64697 16.2973 4.09706C15.8472 4.54714 15.2367 4.8 14.6002 4.8H2.6002C1.96368 4.8 1.35323 4.54714 0.903139 4.09706C0.453052 3.64697 0.200195 3.03652 0.200195 2.4C0.200195 1.76348 0.453052 1.15303 0.903139 0.702944C1.35323 0.252856 1.96368 0 2.6002 0ZM19.4002 19.2H31.4002C32.0367 19.2 32.6472 19.4529 33.0972 19.9029C33.5473 20.353 33.8002 20.9635 33.8002 21.6C33.8002 22.2365 33.5473 22.847 33.0972 23.2971C32.6472 23.7471 32.0367 24 31.4002 24H19.4002C18.7637 24 18.1532 23.7471 17.7031 23.2971C17.2531 22.847 17.0002 22.2365 17.0002 21.6C17.0002 20.9635 17.2531 20.353 17.7031 19.9029C18.1532 19.4529 18.7637 19.2 19.4002 19.2ZM2.6002 9.6H31.4002C32.0367 9.6 32.6472 9.85286 33.0972 10.3029C33.5473 10.753 33.8002 11.3635 33.8002 12C33.8002 12.6365 33.5473 13.247 33.0972 13.6971C32.6472 14.1471 32.0367 14.4 31.4002 14.4H2.6002C1.96368 14.4 1.35323 14.1471 0.903139 13.6971C0.453052 13.247 0.200195 12.6365 0.200195 12C0.200195 11.3635 0.453052 10.753 0.903139 10.3029C1.35323 9.85286 1.96368 9.6 2.6002 9.6Z" fill="#F0EDE6"/>
</svg>
